<svg xmlns="http://www.w3.org/2000/svg">

    <symbol id="double-arrows" viewBox="0 0 613 639">
        <path transform="rotate(90 306.4610595703125,319.4609985351563) "  d="m62.8291,319.46l273.8209,-273.741c10.46,-10.46 10.46,-27.414 0,-37.874c-10.459,-10.46 -27.44,-10.46 -37.9,0l-290.74895,290.642c-5.749,5.749 -8.038,13.441 -7.45199,20.973c-0.58601,7.533 1.70299,15.198 7.45199,20.973l290.72295,290.644c10.46,10.46 27.44,10.46 37.9,0c10.46,-10.46 10.46,-27.414 0,-37.901l-273.7949,-273.716zm321.5699,0l220.218,-220.137c10.46,-10.46 10.46,-27.415 0,-37.901c-10.46,-10.46 -27.44,-10.46 -37.9,0l-237.146,237.065c-5.749,5.749 -8.038,13.441 -7.452,20.973c-0.586,7.533 1.703,15.198 7.452,20.973l237.146,237.067c10.46,10.459 27.44,10.459 37.9,0c10.46,-10.46 10.46,-27.415 0,-37.875l-220.218,-220.165z"/>
    </symbol>

    <symbol id="refresh" viewBox="0 0 612 612">
		  <path d="M592.875 382.5H401.625C391.068 382.5 382.5 391.068 382.5 401.625C382.5 412.182 391.068 420.75 401.625 420.75H547.645C504.632 511.115 412.756 573.75 306 573.75C171.149 573.75 59.899 473.956 41.291 344.25H2.639C21.497 495.146 149.978 612 306 612C421.285 612 521.577 548.199 573.75 454.027V592.875C573.75 603.432 582.318 612 592.875 612C603.432 612 612 603.432 612 592.875V401.625C612 381.314 592.875 382.5 592.875 382.5ZM19.125 229.5H210.375C220.932 229.5 229.5 220.932 229.5 210.375C229.5 199.818 220.932 191.25 210.375 191.25H64.241C107.215 100.827 199.225 38.25 306 38.25C440.851 38.25 552.101 138.044 570.709 267.75H609.36C590.504 116.834 462.021 0 306 0C190.714 0 90.423 63.801 38.25 157.973V19.125C38.25 8.568 29.682 0 19.125 0C8.568 0 0 8.568 0 19.125V210.375C0 228.907 19.125 229.5 19.125 229.5Z" />
    </symbol>

    <symbol id="upload" viewBox="0 0 612 532">
	 	  <path d="M218.953 157.915L285.6 77.1302V367.994C285.6 379.275 294.739 388.434 306 388.434C317.261 388.434 326.4 379.295 326.4 367.994V76.3552L393.699 157.914C401.696 165.952 414.671 165.952 422.668 157.914C430.664 149.876 430.664 136.861 422.668 128.824L321.851 6.60821C317.587 2.32421 311.916 0.508207 306.347 0.794208C300.758 0.509208 295.107 2.32421 290.843 6.60821L189.985 128.824C181.988 136.862 181.988 149.877 189.985 157.914C197.982 165.952 210.957 165.952 218.953 157.915ZM591.6 327.235C580.339 327.235 571.201 336.374 571.201 347.634V490.434H40.8V347.634C40.8 336.373 31.661 327.235 20.4 327.235C9.139 327.235 0 336.374 0 347.635V510.835C0 522.096 9.139 531.235 20.4 531.235H591.6C602.861 531.235 612 522.095 612 510.835V347.635C612 336.354 602.86 327.235 591.6 327.235Z"/>
	  </symbol>

    <symbol id="trash" viewBox="0 0 16 18">
	    <path d="M6.82339 14.4821V5.74571C6.82339 5.47359 6.58641 5.25333 6.29442 5.25333C6.00243 5.25333 5.76545 5.47359 5.76545 5.74571V14.4821C5.76545 14.7542 6.00243 14.9745 6.29442 14.9745C6.58641 14.9745 6.82339 14.7542 6.82339 14.4821ZM10.2356 14.4821V5.74571C10.2356 5.47359 9.99863 5.25333 9.70664 5.25333C9.41465 5.25333 9.17767 5.47359 9.17767 5.74571V14.4821C9.17767 14.7542 9.41465 14.9745 9.70664 14.9745C9.99863 14.9745 10.2356 14.7542 10.2356 14.4821ZM13.809 5.25333C13.517 5.25333 13.28 5.47359 13.28 5.74571V16.297C13.28 16.6929 12.9348 17.0152 12.5098 17.0152H3.49192C3.06663 17.0152 2.72033 16.6932 2.72033 16.297V5.74571C2.72033 5.47359 2.48335 5.25333 2.19136 5.25333C1.89936 5.25333 1.66238 5.47359 1.66238 5.74571V16.297C1.66238 17.2358 2.483 18 3.49192 18H12.5098C13.5177 18 14.338 17.2362 14.338 16.297V5.74571C14.338 5.47359 14.101 5.25333 13.809 5.25333ZM15.471 3.08195H11.8617V0.492373C11.8617 0.220253 11.6247 -3.8147e-06 11.3327 -3.8147e-06H4.66906C4.37707 -3.8147e-06 4.14009 0.220253 4.14009 0.492373V3.08195H0.528972C0.23698 3.08195 0 3.30221 0 3.57433C0 3.84645 0.23698 4.0667 0.528972 4.0667H15.471C15.763 4.0667 16 3.84645 16 3.57433C16 3.30221 15.763 3.08195 15.471 3.08195ZM10.8037 3.08195H5.19803V0.984751H10.8037V3.08195Z"/>
    </symbol>

    <symbol id="close" viewBox="0 0 34 34">
      <path  d="M16.8381 15.952L8.86217 7.976L7.97595 8.86222L15.9519 16.8382L7.97595 24.8141L8.86217 25.7004L16.8381 17.7244L24.8141 25.7004L25.7004 24.8142L17.7243 16.8382L25.7004 8.86217L24.8141 7.97595L16.8381 15.952Z" />
    </symbol>

    <symbol id="search" viewBox="0 0 18 18">
      <path fill-rule="evenodd" clip-rule="evenodd" d="M11.8317 3.89076C9.63845 1.69747 6.08405 1.69747 3.89076 3.89076C1.69747 6.08404 1.69747 9.63845 3.89076 11.8317C6.08405 14.025 9.63845 14.025 11.8317 11.8317C14.025 9.63845 14.025 6.08404 11.8317 3.89076ZM17.6715 17.6715C17.2324 18.1095 16.5215 18.1095 16.0824 17.6715L12.546 14.134C9.46662 16.4362 5.10026 16.2183 2.30278 13.4197C-0.767594 10.3504 -0.767594 5.37316 2.30278 2.30278C5.37204 -0.767596 10.3504 -0.767596 13.4197 2.30278C16.2183 5.10026 16.4362 9.46662 14.134 12.546L17.6715 16.0835C18.1095 16.5215 18.1095 17.2324 17.6715 17.6715Z"/>
    </symbol>   
    
</svg>