<svg xmlns="http://www.w3.org/2000/svg" fill="#000000" width="24" height="24" style="">      <rect id="backgroundrect" width="100%" height="100%" x="0" y="0" fill="none" stroke="none"/>
  <g class="" id="svg_3" fill="#444c5c" opacity="0.7">
    <path d="M4.499711595026383,8.061664069465678 A5.432227755616168,5.432227755616168 0 0 1 13.726738454208704,4.181501386882701 H11.484004423675742 a0.7760325365165986,0.7760325365165986 0 0 0 0,1.5520650730331917 h3.9422452855043053 A0.7760325365165986,0.7760325365165986 0 0 0 16.140199642775315,4.957533923399296 V1.0773712408163196 a0.7760325365165986,0.7760325365165986 0 0 0 -1.5520650730331917,0 V2.877766725534828 A6.984292828649359,6.984292828649359 0 0 0 2.9476465219931924,8.061664069465678 a0.7760325365165986,0.7760325365165986 0 0 0 1.5520650730331917,0 z" id="svg_5" fill="#444c5c" opacity="0.7"/>
    <path d="M16.140199642775315,7.285631532949083 a0.7760325365165986,0.7760325365165986 0 0 0 -0.7760325365165986,0.7760325365165986 A5.432227755616168,5.432227755616168 0 0 1 6.137140247076401,11.941826752048659 H8.37987427760936 a0.7760325365165986,0.7760325365165986 0 0 0 0,-1.5520650730331917 H4.437628992105063 A0.7760325365165986,0.7760325365165986 0 0 0 3.723679058509788,11.165794215532063 v3.880162682582977 a0.7760325365165986,0.7760325365165986 0 0 0 1.5520650730331917,0 V13.245561413396537 A6.984292828649359,6.984292828649359 0 0 0 16.91623217929191,8.061664069465678 A0.7760325365165986,0.7760325365165986 0 0 0 16.140199642775315,7.285631532949083 z" id="svg_7" fill="#444c5c" opacity="0.7"/>
  </g>
  <g id="SVGRepo_iconCarrier" class="" fill="#444c5c">
    <path d="M7.408377973481807,12.78521279248147 A5.717277168127798,5.717277168127798 0 0 1 17.119581620487452,8.701443386675908 H14.75916290393183 a0.816753881161114,0.816753881161114 0 0 0 0,1.6335077623222278 h4.14910971629846 A0.816753881161114,0.816753881161114 0 0 0 19.65968619089852,9.518197267837024 V5.434427862031448 a0.816753881161114,0.816753881161114 0 0 0 -1.6335077623222278,0 V7.329296866325237 A7.350784930450026,7.350784930450026 0 0 0 5.77487021115958,12.78521279248147 a0.816753881161114,0.816753881161114 0 0 0 1.6335077623222278,0 z" id="svg_1" fill="#444c5c"/>
    <path d="M19.65968619089852,11.968458911320361 a0.816753881161114,0.816753881161114 0 0 0 -0.816753881161114,0.816753881161114 A5.717277168127798,5.717277168127798 0 0 1 9.13172866273176,16.868982198287046 H11.492147379287378 a0.816753881161114,0.816753881161114 0 0 0 0,-1.6335077623222278 H7.343037662988918 A0.816753881161114,0.816753881161114 0 0 0 6.591624092320693,16.052228317125923 v4.08376940580557 a0.816753881161114,0.816753881161114 0 0 0 1.6335077623222278,0 V18.24112871863771 A7.350784930450026,7.350784930450026 0 0 0 20.47644007205963,12.78521279248147 A0.816753881161114,0.816753881161114 0 0 0 19.65968619089852,11.968458911320361 z" id="svg_2" fill="#444c5c"/>
  </g>
</svg>